<svg width="24" height="24" viewBox="0 0 24 24" fill="none" xmlns="http://www.w3.org/2000/svg">
<path d="M11.5 9C13.433 9 15 7.433 15 5.5C15 3.567 13.433 2 11.5 2C9.567 2 8 3.567 8 5.5C8 7.433 9.567 9 11.5 9Z" stroke="#757575" stroke-width="2"/>
<path d="M3.50632 15.7413L3.10655 16.2965C1.39199 18.6778 3.09371 22 6.02807 22H15.972C18.9063 22 20.608 18.6778 18.8935 16.2965L18.4937 15.7413C16.8024 13.3922 14.0845 12 11.1899 12H10.8101C7.91556 12 5.19764 13.3922 3.50632 15.7413Z" stroke="#757575" stroke-width="2" stroke-linecap="round"/>
<path d="M21 5V7V9" stroke="#2CA01C" stroke-width="2" stroke-linecap="round"/>
<path d="M19 7H21H23" stroke="#2CA01C" stroke-width="2" stroke-linecap="round"/>
</svg>
