<svg width="32" height="32" viewBox="0 0 32 32" fill="none" xmlns="http://www.w3.org/2000/svg">
<g clip-path="url(#clip0_8_158429)">
<g clip-path="url(#clip1_8_158429)">
<path d="M0 16C0 3.2 3.2 0 16 0C28.8 0 32 3.2 32 16C32 28.8 28.8 32 16 32C3.2 32 0 28.8 0 16Z" fill="url(#paint0_linear_8_158429)"/>
<g filter="url(#filter0_d_8_158429)">
<path d="M15.9999 6.79999C21.0808 6.79999 25.1997 10.9189 25.1998 15.9999C25.1998 17.9626 24.5849 19.7816 23.5376 21.2753L24.731 22.4686L24.7883 22.5285C25.3556 23.1566 25.3362 24.1257 24.731 24.731C24.1258 25.3362 23.1566 25.3556 22.5285 24.7883L22.4686 24.731L21.2752 23.5376C19.7816 24.5849 17.9626 25.1997 15.9999 25.1997C10.9189 25.1997 6.80005 21.0809 6.80005 15.9999C6.80012 10.9189 10.919 6.80005 15.9999 6.79999ZM15.9999 9.21012C12.2502 9.21019 9.21025 12.2502 9.21018 15.9999C9.21018 19.7496 12.2502 22.7895 15.9999 22.7896C19.7496 22.7896 22.7896 19.7496 22.7896 15.9999C22.7895 12.2502 19.7496 9.21012 15.9999 9.21012ZM16.8404 16.8C17.5696 16.8131 18.2825 17.0215 18.9074 17.4041C19.0418 17.4865 19.1711 17.5764 19.2948 17.6731C20.1215 18.3189 20.0219 19.5672 19.1659 20.1737C18.9427 20.3318 18.7081 20.4739 18.4635 20.5982C17.7065 20.9825 16.8737 21.1883 16.0278 21.1997C15.1821 21.2111 14.3446 21.0276 13.578 20.6639C13.3271 20.5449 13.0857 20.4075 12.856 20.2531C11.99 19.6711 11.855 18.4343 12.6542 17.7635C12.7946 17.6457 12.9427 17.5367 13.0982 17.438C13.7364 17.0331 14.4712 16.8127 15.2232 16.8H16.8404ZM15.9999 10.8C16.6364 10.8 17.247 11.0531 17.6972 11.5031C18.1471 11.9531 18.4002 12.5633 18.4002 13.1997C18.4002 13.8363 18.1472 14.4469 17.6972 14.897C17.247 15.3471 16.6364 15.6001 15.9999 15.6001C15.3634 15.6001 14.7533 15.347 14.3032 14.897C13.8532 14.4469 13.6001 13.8363 13.6001 13.1997C13.6002 12.5633 13.8532 11.9531 14.3032 11.5031C14.7533 11.0531 15.3634 10.8001 15.9999 10.8Z" fill="white"/>
</g>
</g>
</g>
<defs>
<filter id="filter0_d_8_158429" x="4.13338" y="5.46665" width="23.7331" height="23.7331" filterUnits="userSpaceOnUse" color-interpolation-filters="sRGB">
<feFlood flood-opacity="0" result="BackgroundImageFix"/>
<feColorMatrix in="SourceAlpha" type="matrix" values="0 0 0 0 0 0 0 0 0 0 0 0 0 0 0 0 0 0 127 0" result="hardAlpha"/>
<feOffset dy="1.33333"/>
<feGaussianBlur stdDeviation="1.33333"/>
<feComposite in2="hardAlpha" operator="out"/>
<feColorMatrix type="matrix" values="0 0 0 0 0.182083 0 0 0 0 0.243258 0 0 0 0 0.316667 0 0 0 0.16 0"/>
<feBlend mode="normal" in2="BackgroundImageFix" result="effect1_dropShadow_8_158429"/>
<feBlend mode="normal" in="SourceGraphic" in2="effect1_dropShadow_8_158429" result="shape"/>
</filter>
<linearGradient id="paint0_linear_8_158429" x1="16" y1="0" x2="16" y2="32" gradientUnits="userSpaceOnUse">
<stop stop-color="#3990FF"/>
<stop offset="1" stop-color="#2662FF"/>
</linearGradient>
<clipPath id="clip0_8_158429">
<rect width="32" height="32" fill="white"/>
</clipPath>
<clipPath id="clip1_8_158429">
<rect width="32" height="32" fill="white"/>
</clipPath>
</defs>
</svg>
