<svg width="20" height="18" viewBox="0 0 20 18" fill="none" xmlns="http://www.w3.org/2000/svg">
<mask id="mask0_39_2388" style="mask-type:alpha" maskUnits="userSpaceOnUse" x="0" y="0" width="20" height="18">
<g clip-path="url(#clip0_39_2388)">
<g clip-path="url(#clip1_39_2388)">
<mask id="mask1_39_2388" style="mask-type:luminance" maskUnits="userSpaceOnUse" x="0" y="-778" width="380" height="835">
<path d="M380 -778H0V57H380V-778Z" fill="white"/>
</mask>
<g mask="url(#mask1_39_2388)">
<path d="M7.5 16.5V11.5C7.5 11.0579 7.67563 10.6339 7.98825 10.3213C8.30088 10.0086 8.72488 9.833 9.167 9.833H10.834C11.2759 9.83327 11.6997 10.009 12.0121 10.3216C12.3245 10.6342 12.5 11.0581 12.5 11.5V16.5M4.167 9H2.5L10 1.5L17.5 9H15.833V14.833C15.833 15.2749 15.6575 15.6988 15.3451 16.0114C15.0327 16.324 14.6089 16.4997 14.167 16.5H5.833C5.39088 16.5 4.96688 16.3244 4.65425 16.0117C4.34163 15.6991 4.166 15.2751 4.166 14.833L4.167 9Z" stroke="white" stroke-width="1.5" stroke-linecap="round" stroke-linejoin="round"/>
</g>
</g>
</g>
</mask>
<g mask="url(#mask0_39_2388)">
<rect width="20" height="18" fill="white" fill-opacity="0.7"/>
</g>
<defs>
<clipPath id="clip0_39_2388">
<rect width="20" height="18" fill="white"/>
</clipPath>
<clipPath id="clip1_39_2388">
<rect width="380" height="835" fill="white" transform="translate(0 -778)"/>
</clipPath>
</defs>
</svg>
